<svg width="66" height="66" viewBox="0 0 66 66" fill="none" xmlns="http://www.w3.org/2000/svg">
<g clip-path="url(#clip0_58_864)">
<path d="M27.5 30.25H16.5C15.7707 30.25 15.0712 29.9603 14.5555 29.4445C14.0397 28.9288 13.75 28.2293 13.75 27.5V19.25C13.75 18.5207 14.0397 17.8212 14.5555 17.3055C15.0712 16.7897 15.7707 16.5 16.5 16.5H24.75C25.4793 16.5 26.1788 16.7897 26.6945 17.3055C27.2103 17.8212 27.5 18.5207 27.5 19.25V35.75C27.5 43.0843 23.8342 47.6658 16.5 49.5" stroke="white" stroke-width="6" stroke-linecap="round" stroke-linejoin="round"/>
<path d="M52.25 30.25H41.25C40.5207 30.25 39.8212 29.9603 39.3055 29.4445C38.7897 28.9288 38.5 28.2293 38.5 27.5V19.25C38.5 18.5207 38.7897 17.8212 39.3055 17.3055C39.8212 16.7897 40.5207 16.5 41.25 16.5H49.5C50.2293 16.5 50.9288 16.7897 51.4445 17.3055C51.9603 17.8212 52.25 18.5207 52.25 19.25V35.75C52.25 43.0843 48.5842 47.6658 41.25 49.5" stroke="white" stroke-width="6" stroke-linecap="round" stroke-linejoin="round"/>
</g>
<defs>
<clipPath id="clip0_58_864">
<rect width="66" height="66" fill="white"/>
</clipPath>
</defs>
</svg>
