<svg width="50" height="50" viewBox="0 0 50 50" fill="none" xmlns="http://www.w3.org/2000/svg">
<g clip-path="url(#clip0_240_835)">
<path d="M39.275 2.83095C37.6506 1.00537 35.399 0 32.9347 0C30.1841 0 27.7999 1.30058 26.0396 3.76103C25.9076 3.9455 25.7841 4.12997 25.6684 4.31259C25.5528 4.12987 25.4294 3.9455 25.2973 3.76103C23.537 1.30058 21.1527 0 18.4021 0C15.9379 0 13.6861 1.00537 12.0618 2.83085C10.5204 4.56327 9.67139 6.87928 9.67139 9.35223C9.67139 12.0396 10.7143 14.5194 12.953 17.1565C14.9064 19.4573 17.7084 21.8222 20.9529 24.5607C22.1518 25.5727 23.3917 26.6191 24.7092 27.761C24.9843 27.9995 25.3263 28.1188 25.6683 28.1188C26.0102 28.1188 26.3522 27.9995 26.6275 27.761C27.9448 26.6194 29.1844 25.573 30.3834 24.5612C32.467 22.8024 34.2666 21.2836 35.8282 19.8103C38.86 16.9498 41.6655 13.703 41.6655 9.35233C41.6655 6.87928 40.8165 4.56337 39.275 2.83095ZM33.8181 17.6798C32.3156 19.0974 30.5447 20.5921 28.4942 22.3227C27.582 23.0925 26.6465 23.8822 25.6684 24.7208C24.6902 23.8823 23.7544 23.0924 22.8422 22.3224C16.4556 16.9319 12.6005 13.6782 12.6005 9.35233C12.6003 5.69052 15.0944 2.92919 18.402 2.92919C20.1691 2.92919 21.6719 3.76103 22.8687 5.40155C23.8509 6.74784 24.2542 8.14354 24.2569 8.15291C24.4327 8.78738 25.01 9.22664 25.6683 9.22664C26.3266 9.22664 26.904 8.78738 27.0798 8.15291C27.0942 8.10067 28.5768 2.92919 32.9347 2.92919C36.2422 2.92919 38.7365 5.69061 38.7365 9.35233C38.7365 12.0055 37.3575 14.3403 33.8181 17.6798Z" fill="white"/>
<path d="M45.6007 29.4967C44.3858 29.4967 43.2138 30.0067 42.3854 30.896L38.081 35.5169C37.5246 33.7282 35.8539 32.4258 33.8846 32.4258H27.119C26.1718 32.4258 25.2584 32.0811 24.5473 31.4554C20.7228 28.0897 14.9742 28.0601 11.1134 31.3623C10.3172 30.235 9.00526 29.4968 7.52323 29.4968H1.46992C0.661132 29.4968 0.00537109 30.1524 0.00537109 30.9613V48.5355C0.00537109 49.3443 0.661034 50 1.46992 50H7.52323C8.83846 50 10.0197 49.4183 10.8256 48.4996L11.6928 48.7433C14.6594 49.5772 17.726 49.9999 20.8076 49.9999H33.8845C37.0941 49.9999 40.16 48.4669 42.0858 45.8993L49.1169 36.5246C49.117 36.5244 49.1171 36.5242 49.1173 36.524C49.691 35.759 49.9942 34.8482 49.9942 33.8901C49.9942 31.4676 48.0232 29.4967 45.6007 29.4967ZM8.98778 45.6063C8.98778 46.4138 8.33084 47.0709 7.52323 47.0709H2.93437V32.4257H7.52323C8.33075 32.4257 8.98778 33.0826 8.98778 33.8902V45.6063ZM46.7738 34.7669L46.7736 34.7671L39.7426 44.142C38.367 45.976 36.1771 47.071 33.8845 47.071H20.8079C17.9943 47.071 15.1943 46.6849 12.4857 45.9236L11.913 45.7626C11.9148 45.7106 11.917 45.6587 11.917 45.6064V34.5522L12.9376 33.6541C15.6954 31.2273 19.8546 31.2271 22.6127 33.6541C23.8588 34.7507 25.4591 35.3546 27.1192 35.3546H33.8848C34.6923 35.3546 35.3493 36.0116 35.3493 36.8191C35.3493 37.6266 34.6924 38.2837 33.8848 38.2837H23.4761C22.6673 38.2837 22.0116 38.9393 22.0116 39.7482C22.0116 40.5571 22.6672 41.2128 23.4761 41.2128H34.8661C36.0811 41.2128 37.2529 40.7029 38.0811 39.8138L44.5286 32.8924C44.809 32.5914 45.1898 32.4257 45.6007 32.4257C46.4082 32.4257 47.0652 33.0826 47.0652 33.8902C47.0652 34.2096 46.9645 34.5127 46.7738 34.7669Z" fill="white"/>
</g>
<defs>
<clipPath id="clip0_240_835">
<rect width="50" height="50" fill="white"/>
</clipPath>
</defs>
</svg>
