<svg width="50" height="50" viewBox="0 0 50 50" fill="none" xmlns="http://www.w3.org/2000/svg">
<g clip-path="url(#clip0_240_876)">
<path d="M46.1482 7.34027C41.318 2.50883 33.6466 2.20621 28.4654 6.47665C27.8659 6.96858 27.7334 7.11472 25 9.85221C22.2907 7.13885 22.1377 6.97151 21.5372 6.4788C16.3131 2.1729 8.64577 2.54507 3.85174 7.34027C-1.28388 12.4769 -1.28398 20.8365 3.85184 25.9756C9.75731 31.8808 23.8235 45.9571 23.9436 46.0718C24.5001 46.6272 25.3999 46.7136 26.0756 46.0545C26.2561 45.8786 27.2671 44.8653 28.2624 43.8689C30.6727 41.456 35.6881 36.4351 46.1486 25.9752C51.2839 20.8365 51.2838 12.477 46.1482 7.34027ZM5.9244 23.9037C1.9306 19.9075 1.9305 13.4066 5.9241 9.41224C9.6606 5.67496 15.5704 5.35837 19.6757 8.74223C20.1445 9.12691 20.1814 9.17448 22.9281 11.9248L16.1494 18.7032C15.5776 19.275 15.5772 20.2033 16.1494 20.7754L18.0624 22.6883C19.7409 24.3668 22.452 24.3592 24.1228 22.6884L27.9492 18.8622C28.4775 18.3339 29.337 18.334 29.8653 18.8622L38.548 27.5156C39.0646 28.0321 39.0914 28.8633 38.6079 29.3685C38.1017 29.8976 37.2679 29.9059 36.7496 29.3875L30.3318 22.999C29.7583 22.4281 28.8305 22.4302 28.2596 23.0037C27.6886 23.5773 27.6909 24.505 28.2644 25.0758L34.6798 31.4619C35.1853 31.9674 35.1862 32.7908 34.6799 33.2971C34.1754 33.8016 33.3568 33.8093 32.8422 33.2947L26.4244 26.9062C25.851 26.3354 24.9232 26.3373 24.3522 26.9109C23.7813 27.4845 23.7835 28.4122 24.357 28.9831L30.7724 35.3692C31.279 35.8757 31.2778 36.6989 30.7725 37.2043C30.429 37.5477 29.6064 37.7938 28.9832 37.3268C28.2369 36.5358 27.2598 36.0841 26.2156 36.0092C26.0655 33.92 24.4007 32.2519 22.3082 32.1018C22.1582 30.0127 20.4934 28.3446 18.4009 28.1945C18.2438 26.0073 16.4228 24.2748 14.1848 24.2748C13.0554 24.2748 11.9934 24.7148 11.1947 25.5135L9.36443 27.3437C8.28844 26.2678 7.14388 25.1232 5.9244 23.9037ZM18.0922 31.1128C19.242 31.1128 19.8252 32.5125 19.0094 33.3283L17.1781 35.1597C16.6045 34.5858 15.9936 33.9748 15.3433 33.3241C15.367 33.3004 17.186 31.4815 17.1745 31.4929C17.4199 31.2479 17.7457 31.1128 18.0922 31.1128ZM21.9995 35.0201C23.1627 35.0201 23.726 36.4263 22.9168 37.2357L21.0841 39.0683C20.5358 38.5195 19.9262 37.9095 19.2496 37.2325L21.0817 35.4005C21.3268 35.1554 21.6528 35.0201 21.9995 35.0201ZM25.9069 38.9276C27.0672 38.9276 27.6349 40.3322 26.8239 41.1432L24.9916 42.9762L23.1554 41.1414L24.989 39.3079C25.234 39.0628 25.5602 38.9276 25.9069 38.9276ZM15.1021 29.421L13.2715 31.2516C12.687 30.667 12.0757 30.0555 11.4365 29.4162L13.2669 27.5859C13.5123 27.3406 13.8382 27.2055 14.1848 27.2055C15.3347 27.2054 15.9178 28.6052 15.1021 29.421ZM44.076 23.9033C43.1486 24.8305 42.265 25.7143 41.4213 26.558C41.2198 26.1543 40.9526 25.7757 40.6178 25.441L31.9375 16.7899C30.2667 15.119 27.548 15.1191 25.8771 16.7898L22.0506 20.6162C21.5223 21.1443 20.6628 21.1444 20.1345 20.6162L19.2576 19.7393C30.4779 8.51961 29.7707 9.19646 30.3268 8.74008C34.4139 5.37126 40.3247 5.66021 44.0759 9.41224C48.0695 13.4066 48.0694 19.9075 44.076 23.9033Z" fill="white"/>
</g>
<defs>
<clipPath id="clip0_240_876">
<rect width="50" height="50" fill="white"/>
</clipPath>
</defs>
</svg>
