<svg width="52" height="52" viewBox="0 0 52 52" fill="none" xmlns="http://www.w3.org/2000/svg">
<path d="M21.3307 52H30.6693C34.0442 52 36.7804 49.2638 36.7804 45.8886V36.7803H45.8886C49.2638 36.7803 52 34.0444 52 30.6692V21.3308C52 17.9556 49.2638 15.2194 45.8886 15.2194H34.8278C34.0251 15.2172 33.2298 15.3742 32.4881 15.6813C31.7464 15.9884 31.0729 16.4396 30.5067 17.0087L17.0771 30.4388H10.7817C9.60438 30.4389 8.47526 29.9713 7.64269 29.1389C6.81012 28.3065 6.3423 27.1775 6.34212 26.0002C6.34212 24.8229 6.80979 23.6938 7.64225 22.8614C8.4747 22.0289 9.60376 21.5612 10.781 21.5612H15.4497C18.8245 21.5612 21.5611 18.825 21.5611 15.4495V10.7805C21.5611 9.60317 22.0288 8.47411 22.8612 7.64165C23.6937 6.80919 24.8227 6.34152 26 6.34152C27.1773 6.34152 28.3063 6.80919 29.1388 7.64165C29.9712 8.47411 30.4389 9.60317 30.4389 10.7805H36.7807V6.11144C36.7807 2.73624 34.0445 0 30.6693 0H21.3307C17.9558 0 15.2196 2.73592 15.2196 6.11112V15.2194H6.11108C2.73622 15.2194 -3.8147e-06 17.9553 -3.8147e-06 21.3305V30.6692C-3.8147e-06 34.044 2.73622 36.7803 6.11108 36.7803H17.1725C17.9753 36.7824 18.7705 36.6254 19.5123 36.3182C20.254 36.011 20.9274 35.5598 21.4936 34.9906L34.9229 21.5612H41.2183C41.8014 21.5611 42.3787 21.6757 42.9174 21.8987C43.4561 22.1217 43.9456 22.4487 44.3579 22.8609C44.7703 23.2731 45.0973 23.7625 45.3205 24.3012C45.5437 24.8398 45.6585 25.4171 45.6585 26.0002C45.6584 27.1774 45.1907 28.3064 44.3583 29.1388C43.5258 29.9711 42.3968 30.4388 41.2196 30.4388H36.55C33.1751 30.4388 30.4389 33.1747 30.4389 36.5499V41.2192C30.4389 42.3965 29.9712 43.5256 29.1388 44.358C28.3063 45.1905 27.1773 45.6582 26 45.6582C24.8228 45.6581 23.6939 45.1904 22.8615 44.358C22.0292 43.5256 21.5615 42.3967 21.5614 41.2195H15.2199V45.8889C15.2196 49.2641 17.9555 52 21.3307 52Z" fill="#7D71CB"/>
</svg>
