<svg width="50" height="50" viewBox="0 0 50 50" fill="none" xmlns="http://www.w3.org/2000/svg">
<g clip-path="url(#clip0_240_890)">
<path d="M20.9569 33.1952C24.7462 29.406 24.0182 22.5343 19.3309 17.847C14.6435 13.1597 7.77192 12.4317 3.98265 16.221C0.193388 20.0102 0.921402 26.8819 5.60872 31.5692C10.296 36.2565 17.1677 36.9845 20.9569 33.1952Z" stroke="white" stroke-width="2.4" stroke-miterlimit="10" stroke-linecap="round" stroke-linejoin="round"/>
<path d="M10.2087 26.9695C9.00832 25.7691 8.23459 24.2759 8.08594 22.8729C8.03024 22.3475 8.02078 21.3823 8.58264 20.8204C9.1444 20.2586 10.1097 20.268 10.6351 20.3237C12.0382 20.4724 13.5313 21.2461 14.7317 22.4465C15.9321 23.6469 16.7058 25.1401 16.8545 26.5431C16.9102 27.0685 16.9196 28.0337 16.3578 28.5956C15.7959 29.1573 14.8307 29.148 14.3053 29.0923C12.9023 28.9436 11.4092 28.1699 10.2087 26.9695Z" stroke="white" stroke-width="2.4" stroke-miterlimit="10" stroke-linecap="round" stroke-linejoin="round"/>
<path d="M44.3855 44.484C49.0729 39.7967 49.8009 32.9251 46.0116 29.1358C42.2223 25.3466 35.3507 26.0746 30.6634 30.7619C25.9761 35.4492 25.2481 42.3208 29.0373 46.1101C32.8266 49.8994 39.6982 49.1713 44.3855 44.484Z" stroke="white" stroke-width="2.4" stroke-miterlimit="10" stroke-linecap="round" stroke-linejoin="round"/>
<path d="M35.2634 35.3615C36.4638 34.1612 37.957 33.3874 39.36 33.2388C39.8854 33.1831 40.8506 33.1736 41.4125 33.7355C41.9743 34.2973 41.9649 35.2625 41.9092 35.7879C41.7605 37.191 40.9868 38.6841 39.7864 39.8845C38.586 41.0849 37.0928 41.8586 35.6898 42.0073C35.1644 42.063 34.1992 42.0725 33.6373 41.5106C33.0755 40.9488 33.0849 39.9835 33.1406 39.4582C33.2892 38.0552 34.0629 36.562 35.2634 35.3615Z" stroke="white" stroke-width="2.4" stroke-miterlimit="10" stroke-linecap="round" stroke-linejoin="round"/>
<path d="M36.4412 20.8696C43.0701 20.8696 48.444 16.5254 48.444 11.1665C48.444 5.80761 43.0701 1.46338 36.4412 1.46338C29.8123 1.46338 24.4385 5.80761 24.4385 11.1665C24.4385 16.5254 29.8123 20.8696 36.4412 20.8696Z" stroke="white" stroke-width="2.4" stroke-miterlimit="10" stroke-linecap="round" stroke-linejoin="round"/>
<path d="M36.4413 14.3649C34.7436 14.3649 33.1408 13.8562 32.0435 12.9691C31.6326 12.637 30.9434 11.9612 30.9434 11.1666C30.9434 10.3721 31.6326 9.69618 32.0435 9.36404C33.1407 8.47706 34.7436 7.96826 36.4413 7.96826C38.139 7.96826 39.7418 8.47696 40.8391 9.36404C41.25 9.69618 41.9392 10.372 41.9392 11.1666C41.9392 11.9611 41.25 12.637 40.8391 12.9691C39.7418 13.8562 38.139 14.3649 36.4413 14.3649Z" stroke="white" stroke-width="2.4" stroke-miterlimit="10" stroke-linecap="round" stroke-linejoin="round"/>
</g>
<defs>
<clipPath id="clip0_240_890">
<rect width="50" height="50" fill="white"/>
</clipPath>
</defs>
</svg>
