<svg width="24" height="22" viewBox="0 0 24 22" fill="none" xmlns="http://www.w3.org/2000/svg">
<path d="M11.525 0.463528C11.6746 0.00287247 12.3263 0.00287044 12.476 0.463526L14.8069 7.63729C14.8738 7.8433 15.0658 7.98278 15.2824 7.98278H22.8254C23.3097 7.98278 23.5111 8.60259 23.1193 8.88729L17.0169 13.3209C16.8417 13.4482 16.7683 13.6739 16.8353 13.8799L19.1662 21.0537C19.3158 21.5143 18.7886 21.8974 18.3967 21.6127L12.2944 17.1791C12.1191 17.0518 11.8818 17.0518 11.7066 17.1791L5.60423 21.6127C5.21237 21.8974 4.68513 21.5143 4.83481 21.0537L7.1657 13.8799C7.23264 13.6739 7.15931 13.4482 6.98407 13.3209L0.881704 8.88729C0.489847 8.60259 0.691233 7.98278 1.17559 7.98278H8.71853C8.93514 7.98278 9.12712 7.8433 9.19406 7.63729L11.525 0.463528Z" fill="#5DB996"/>
</svg>
